<svg width="191" height="47" viewBox="0 0 191 47" fill="none" xmlns="http://www.w3.org/2000/svg">
<g clip-path="url(#clip0_3559_1380)">
<path d="M64.5654 17.0712C66.8148 17.0712 68.4642 18.2006 69.023 20.0043C69.081 20.204 69.2009 20.3793 69.3647 20.5043C69.5286 20.6293 69.7277 20.6972 69.9326 20.6981H74.1076C73.76 15.716 69.9897 12.6506 64.5654 12.6506C59.8665 12.6506 56.2407 15.1852 54.7898 19.2831C54.3362 20.6404 54.1108 22.0655 54.123 23.4988C54.1109 24.9316 54.3363 26.3562 54.7898 27.7129C56.2407 31.8109 59.8696 34.3454 64.4495 34.3454C69.931 34.3454 73.4694 31.0445 73.8155 26.298H69.6468C69.4404 26.2987 69.2398 26.3675 69.0751 26.494C68.9105 26.6206 68.7908 26.7981 68.734 26.9998C68.1943 28.7987 66.6481 29.8942 64.5066 29.8942C62.1572 29.8942 60.3014 28.4793 59.5188 26.2399C59.2079 25.361 59.0605 24.4309 59.0839 23.4972C59.0581 22.5633 59.2057 21.6329 59.5188 20.7545C60.3014 18.5233 62.1572 17.0712 64.5654 17.0712Z" fill="#4E7C3C"/>
<path d="M85.6595 12.657C80.8146 12.657 77.1888 15.1916 75.7395 19.2895C75.2859 20.6467 75.0605 22.0719 75.0727 23.5052C75.0606 24.938 75.286 26.3626 75.7395 27.7193C77.1888 31.8769 80.8448 34.3518 85.6881 34.3518C90.5616 34.3518 94.1287 31.7882 95.5796 27.7193C96.0566 26.3679 96.292 24.9408 96.2749 23.5052C96.2922 22.0691 96.0567 20.6414 95.5796 19.2895C94.1572 15.1916 90.5315 12.657 85.6595 12.657ZM90.8807 26.2463C90.0679 28.5453 88.2122 29.9005 85.6595 29.9005C83.1069 29.9005 81.2496 28.4856 80.4669 26.2463C80.1561 25.3673 80.0086 24.4373 80.032 23.5036C80.0063 22.5697 80.1538 21.6392 80.4669 20.7609C81.2496 18.5231 83.1069 17.0711 85.6595 17.0711C88.2407 17.0711 90.0679 18.5231 90.8807 20.756C91.1793 21.6382 91.3265 22.5659 91.3157 23.4987C91.3247 24.433 91.1776 25.362 90.8807 26.2463Z" fill="#4E7C3C"/>
<path d="M110.064 30.9043H109.484L109.287 28.7278C109.071 26.34 108.507 23.9982 107.613 21.7791L104.388 13.7866C104.316 13.6086 104.193 13.4565 104.035 13.3499C103.878 13.2433 103.692 13.1869 103.503 13.188H97.2433V33.8228H100.586C100.839 33.8228 101.081 33.7208 101.26 33.5393C101.439 33.3578 101.539 33.1115 101.539 32.8548V16.1033H102.12L102.279 18.0878C102.48 20.584 103.061 23.0333 104.003 25.3479L107.455 33.8261H113.38C113.632 33.8261 113.875 33.7241 114.053 33.5425C114.232 33.361 114.332 33.1148 114.332 32.858V13.188H110.064V30.9043Z" fill="#4E7C3C"/>
<path d="M132.728 19.3187C131.364 15.4273 128 13.188 123.387 13.188H116.244C115.991 13.188 115.749 13.29 115.57 13.4715C115.391 13.6531 115.291 13.8993 115.291 14.156V33.8228H120.019V18.575C120.019 18.3183 120.119 18.072 120.298 17.8905C120.476 17.709 120.718 17.607 120.971 17.607H123.53C125.706 17.607 127.302 18.8751 128.027 20.8498C128.326 21.7007 128.473 22.5988 128.462 23.5022C128.478 24.3899 128.331 25.2729 128.029 26.1061C127.332 28.1099 125.738 29.4071 123.532 29.4071H121.944C121.692 29.4071 121.449 29.509 121.271 29.6906C121.092 29.8721 120.992 30.1183 120.992 30.3751V33.8325H123.387C128.029 33.8325 131.364 31.5915 132.728 27.7292C133.186 26.3731 133.412 24.9471 133.395 23.5135C133.413 22.0866 133.187 20.6673 132.728 19.3187Z" fill="#4E7C3C"/>
<path d="M147.212 14.1526V22.058H137.263V14.1526C137.263 13.8959 137.163 13.6496 136.984 13.4681C136.806 13.2866 136.563 13.1846 136.311 13.1846H134.363V33.8194H136.312C136.565 33.8194 136.807 33.7174 136.986 33.5359C137.165 33.3543 137.265 33.1081 137.265 32.8514V24.8604H147.214V32.8562C147.214 33.113 147.314 33.3592 147.493 33.5407C147.671 33.7222 147.913 33.8242 148.166 33.8242H150.117V13.1878H148.161C147.91 13.1886 147.669 13.2906 147.491 13.4713C147.313 13.6521 147.213 13.897 147.212 14.1526Z" fill="#4E7C3C"/>
<path d="M151.079 14.1528V33.8228H162.914V31.9868C162.914 31.7301 162.813 31.4839 162.635 31.3023C162.456 31.1208 162.214 31.0188 161.961 31.0188H153.984V24.8606H161.677C161.93 24.8606 162.172 24.7586 162.35 24.5771C162.529 24.3956 162.629 24.1493 162.629 23.8926V22.0598H153.984V15.9872H161.967C162.22 15.9872 162.462 15.8852 162.641 15.7036C162.82 15.5221 162.92 15.2759 162.92 15.0191V13.188H152.03C151.778 13.1884 151.537 13.2901 151.359 13.4709C151.18 13.6517 151.08 13.8969 151.079 14.1528Z" fill="#4E7C3C"/>
<path d="M174.766 31.0218H166.782V14.1526C166.782 13.8959 166.682 13.6496 166.503 13.4681C166.325 13.2866 166.082 13.1846 165.83 13.1846H163.88V33.8194H175.713V31.9866C175.712 31.7313 175.612 31.4866 175.435 31.3059C175.257 31.1252 175.017 31.0231 174.766 31.0218Z" fill="#4E7C3C"/>
<path d="M189.591 16.0469C188.575 14.2189 186.516 13.188 183.905 13.188H176.685V33.8228H178.636C178.888 33.8228 179.131 33.7208 179.309 33.5393C179.488 33.3577 179.588 33.1115 179.588 32.8548V16.9536C179.588 16.6968 179.689 16.4506 179.867 16.2691C180.046 16.0875 180.288 15.9855 180.541 15.9855H183.913C185.422 15.9855 186.465 16.576 186.959 17.4376C187.254 17.9643 187.402 18.5629 187.386 19.1687C187.4 19.778 187.25 20.3795 186.951 20.9079C186.457 21.763 185.414 22.3809 183.905 22.3809H181.503C181.25 22.3809 181.008 22.4829 180.829 22.6644C180.651 22.846 180.55 23.0922 180.55 23.3489V25.1833H183.901C186.513 25.1833 188.572 24.1217 189.588 22.2938C190.106 21.3377 190.367 20.2599 190.345 19.1687C190.367 18.0789 190.107 17.0023 189.591 16.0469Z" fill="#4E7C3C"/>
<path d="M45.2571 23.087C45.4841 36.0438 35.0052 46.7097 22.2563 46.5C17.2376 46.4229 12.3878 44.6458 8.47553 41.4502C8.42698 41.4107 8.38803 41.3603 8.36172 41.3031C8.33542 41.2458 8.32245 41.1831 8.32383 41.1199C8.32521 41.0567 8.34091 40.9947 8.36969 40.9386C8.39848 40.8826 8.43958 40.8341 8.48982 40.7968C11.6203 38.4671 14.6397 35.9938 17.4018 33.2253C21.353 29.2661 24.774 24.6842 26.9377 19.4908C27.3648 18.4663 27.7664 17.3805 28.576 16.6303C29.3856 15.8801 30.7508 15.6058 31.5541 16.3609C32.0668 16.8449 32.224 17.6242 32.1256 18.3292C32.0271 19.0342 31.7096 19.6828 31.3969 20.3201L28.1394 26.959C27.8775 27.4931 27.6108 28.0432 27.5759 28.6369C27.541 29.2306 27.8029 29.8857 28.3379 30.1244C29.0284 30.4326 29.8031 29.9631 30.3682 29.4484C31.5833 28.3395 32.5591 26.9866 33.234 25.4752C33.9088 23.9637 34.2682 22.3266 34.2893 20.6669C34.2988 19.0165 33.9718 17.3821 33.9146 15.7317C33.8575 14.0812 34.1131 12.334 35.1306 11.0449C35.6361 10.421 36.2929 9.94184 37.0361 9.65467C37.7794 9.3675 38.5836 9.28225 39.3692 9.40733C39.916 9.50468 40.4396 9.7067 40.9122 10.0027C40.9585 10.0331 40.9988 10.0719 41.0312 10.1172C43.7066 13.9022 45.181 18.4272 45.2571 23.087Z" fill="#4E7C3C"/>
<path d="M36.7831 5.55288C36.8305 5.59218 36.8685 5.64194 36.8942 5.6984C36.9199 5.75485 36.9327 5.8165 36.9314 5.87869C36.9302 5.94088 36.9151 6.00197 36.8872 6.05734C36.8593 6.1127 36.8193 6.16088 36.7704 6.19822C33.6399 8.52468 30.6206 11.0012 27.86 13.7665C23.9088 17.724 20.4878 22.3076 18.3241 27.4994C17.897 28.5255 17.4938 29.6112 16.6858 30.3631C15.8778 31.1149 14.511 31.3875 13.7077 30.6309C13.1934 30.1469 13.0362 29.3676 13.1346 28.6626C13.2331 27.9576 13.5506 27.309 13.8649 26.6717C14.9496 24.4614 16.0355 22.2511 17.1223 20.0408C17.3843 19.5084 17.651 18.955 17.6859 18.3613C17.7208 17.7676 17.4621 17.1174 16.9223 16.8802C16.2318 16.5737 15.4571 17.0416 14.8935 17.5579C13.6788 18.6669 12.7035 20.0199 12.0292 21.5313C11.3548 23.0428 10.9961 24.6799 10.9757 26.3394C10.9646 27.9898 11.2932 29.6241 11.3487 31.273C11.4043 32.9218 11.1503 34.6723 10.1327 35.9517C9.62628 36.5768 8.9678 37.0565 8.22264 37.3432C7.47748 37.6299 6.67151 37.7136 5.88469 37.5861C5.3109 37.4813 4.76324 37.262 4.27342 36.9407C1.47583 33.0109 -0.0206645 28.2793 -3.36593e-05 23.4289C0.036478 10.8398 10.1486 0.551475 22.5419 0.499847C27.7192 0.471369 32.7482 2.25575 36.7831 5.55288Z" fill="#4E7C3C"/>
</g>
<defs>
<clipPath id="clip0_3559_1380">
<rect width="190.345" height="46" fill="white" transform="translate(0 0.5)"/>
</clipPath>
</defs>
</svg>
