<svg width="191" height="47" viewBox="0 0 191 47" fill="none" xmlns="http://www.w3.org/2000/svg">
<g clip-path="url(#clip0_3559_1154)">
<path d="M64.5654 13.8908C66.8148 13.8908 68.4642 15.0202 69.023 16.8239C69.081 17.0236 69.2009 17.1989 69.3647 17.3239C69.5286 17.4489 69.7277 17.5168 69.9326 17.5177H74.1076C73.76 12.5356 69.9897 9.47025 64.5654 9.47025C59.8665 9.47025 56.2407 12.0048 54.7898 16.1028C54.3362 17.46 54.1108 18.8851 54.123 20.3184C54.1109 21.7512 54.3363 23.1758 54.7898 24.5325C56.2407 28.6305 59.8696 31.165 64.4495 31.165C69.931 31.165 73.4694 27.8641 73.8155 23.1176H69.6468C69.4404 23.1183 69.2398 23.1871 69.0751 23.3136C68.9105 23.4402 68.7908 23.6177 68.734 23.8194C68.1943 25.6183 66.6481 26.7138 64.5066 26.7138C62.1572 26.7138 60.3014 25.2989 59.5188 23.0595C59.2079 22.1806 59.0605 21.2506 59.0839 20.3168C59.0581 19.383 59.2057 18.4525 59.5188 17.5741C60.3014 15.3429 62.1572 13.8908 64.5654 13.8908Z" fill="#4E7C3C"/>
<path d="M85.6595 9.4767C80.8146 9.4767 77.1888 12.0113 75.7395 16.1092C75.2859 17.4664 75.0605 18.8916 75.0727 20.3249C75.0606 21.7577 75.286 23.1823 75.7395 24.539C77.1888 28.6966 80.8448 31.1715 85.6881 31.1715C90.5616 31.1715 94.1287 28.6079 95.5796 24.539C96.0566 23.1876 96.292 21.7605 96.2749 20.3249C96.2922 18.8888 96.0567 17.4611 95.5796 16.1092C94.1572 12.0113 90.5315 9.4767 85.6595 9.4767ZM90.8807 23.066C90.0679 25.365 88.2122 26.7202 85.6595 26.7202C83.1069 26.7202 81.2496 25.3053 80.4669 23.066C80.1561 22.187 80.0086 21.257 80.032 20.3233C80.0063 19.3894 80.1538 18.459 80.4669 17.5806C81.2496 15.3429 83.1069 13.8908 85.6595 13.8908C88.2407 13.8908 90.0679 15.3429 90.8807 17.5757C91.1793 18.4579 91.3265 19.3856 91.3157 20.3185C91.3247 21.2527 91.1776 22.1818 90.8807 23.066Z" fill="#4E7C3C"/>
<path d="M110.064 27.7238H109.484L109.287 25.5473C109.071 23.1595 108.507 20.8176 107.613 18.5986L104.388 10.606C104.316 10.428 104.193 10.276 104.035 10.1694C103.878 10.0628 103.692 10.0064 103.503 10.0075H97.2433V30.6423H100.586C100.839 30.6423 101.081 30.5403 101.26 30.3588C101.439 30.1773 101.539 29.931 101.539 29.6743V12.9228H102.12L102.279 14.9073C102.48 17.4035 103.061 19.8528 104.003 22.1674L107.455 30.6455H113.38C113.632 30.6455 113.875 30.5436 114.053 30.362C114.232 30.1805 114.332 29.9343 114.332 29.6775V10.0075H110.064V27.7238Z" fill="#4E7C3C"/>
<path d="M132.728 16.1383C131.364 12.2468 128 10.0075 123.387 10.0075H116.244C115.991 10.0075 115.749 10.1095 115.57 10.291C115.391 10.4726 115.291 10.7188 115.291 10.9755V30.6423H120.019V15.3945C120.019 15.1378 120.119 14.8916 120.298 14.71C120.476 14.5285 120.718 14.4265 120.971 14.4265H123.53C125.706 14.4265 127.302 15.6946 128.027 17.6693C128.326 18.5202 128.473 19.4183 128.462 20.3217C128.478 21.2094 128.331 22.0924 128.029 22.9256C127.332 24.9294 125.738 26.2266 123.532 26.2266H121.944C121.692 26.2266 121.449 26.3286 121.271 26.5101C121.092 26.6916 120.992 26.9379 120.992 27.1946V30.652H123.387C128.029 30.652 131.364 28.4111 132.728 24.5487C133.186 23.1926 133.412 21.7667 133.395 20.333C133.413 18.9061 133.187 17.4868 132.728 16.1383Z" fill="#4E7C3C"/>
<path d="M147.212 10.9723V18.8777H137.263V10.9723C137.263 10.7156 137.163 10.4693 136.984 10.2878C136.806 10.1063 136.563 10.0043 136.311 10.0043H134.363V30.6391H136.312C136.565 30.6391 136.807 30.5371 136.986 30.3556C137.164 30.174 137.265 29.9278 137.265 29.6711V21.6801H147.213V29.6759C147.213 29.9327 147.314 30.1789 147.492 30.3604C147.671 30.5419 147.913 30.6439 148.166 30.6439H150.117V10.0075H148.161C147.91 10.0083 147.669 10.1103 147.491 10.291C147.313 10.4718 147.213 10.7167 147.212 10.9723Z" fill="#EDC32E"/>
<path d="M151.079 10.9723V30.6423H162.914V28.8063C162.914 28.5496 162.813 28.3034 162.635 28.1218C162.456 27.9403 162.214 27.8383 161.961 27.8383H153.984V21.6801H161.677C161.93 21.6801 162.172 21.5782 162.35 21.3966C162.529 21.2151 162.629 20.9689 162.629 20.7121V18.8794H153.984V12.8067H161.967C162.22 12.8067 162.462 12.7047 162.641 12.5232C162.82 12.3416 162.92 12.0954 162.92 11.8387V10.0075H152.03C151.778 10.0079 151.537 10.1097 151.359 10.2905C151.18 10.4713 151.08 10.7164 151.079 10.9723Z" fill="#EDC32E"/>
<path d="M174.765 27.8415H166.782V10.9723C166.782 10.7156 166.682 10.4693 166.503 10.2878C166.324 10.1063 166.082 10.0043 165.83 10.0043H163.88V30.6391H175.713V28.8063C175.712 28.551 175.612 28.3063 175.435 28.1256C175.257 27.9449 175.017 27.8428 174.765 27.8415Z" fill="#EDC32E"/>
<path d="M189.591 12.8664C188.575 11.0384 186.516 10.0075 183.905 10.0075H176.685V30.6423H178.636C178.888 30.6423 179.131 30.5403 179.309 30.3588C179.488 30.1773 179.588 29.931 179.588 29.6743V13.7731C179.588 13.5163 179.689 13.2701 179.867 13.0886C180.046 12.9071 180.288 12.8051 180.541 12.8051H183.913C185.422 12.8051 186.465 13.3956 186.959 14.2571C187.254 14.7838 187.402 15.3824 187.386 15.9882C187.4 16.5975 187.25 17.199 186.951 17.7274C186.457 18.5825 185.414 19.2004 183.905 19.2004H181.503C181.25 19.2004 181.008 19.3024 180.829 19.4839C180.651 19.6655 180.55 19.9117 180.55 20.1684V22.0028H183.901C186.513 22.0028 188.572 20.9412 189.588 19.1133C190.106 18.1572 190.367 17.0794 190.345 15.9882C190.367 14.8984 190.107 13.8219 189.591 12.8664Z" fill="#EDC32E"/>
<path d="M59.0965 43.5621C58.8637 42.8736 58.8637 42.1258 59.0965 41.4373C59.2701 40.9472 59.5918 40.5256 60.0155 40.2326C60.4392 39.9396 60.9432 39.7904 61.4555 39.8062C62.7254 39.8062 63.6779 40.5887 63.7494 41.7616H63.0096C62.9286 41.0178 62.3048 40.508 61.4634 40.508C61.0989 40.5021 60.7421 40.615 60.4453 40.8301C60.1485 41.0452 59.9273 41.3513 59.814 41.7035C59.6405 42.2202 59.6405 42.7808 59.814 43.2975C59.9246 43.6453 60.141 43.9485 60.432 44.1633C60.723 44.3782 61.0736 44.4936 61.4332 44.493C62.2762 44.493 62.835 43.9977 62.9286 43.2378H63.67C63.5747 44.3897 62.7175 45.1932 61.3904 45.1932C60.8882 45.1991 60.3969 45.045 59.9854 44.7524C59.574 44.4598 59.2631 44.0435 59.0965 43.5621Z" fill="white"/>
<path d="M64.7225 44.4413C64.5139 44.1028 64.4033 43.7114 64.4033 43.312C64.4033 42.9126 64.5139 42.5212 64.7225 42.1826C64.8948 41.9511 65.1175 41.7632 65.3733 41.6339C65.629 41.5046 65.9108 41.4373 66.1965 41.4373C66.4821 41.4373 66.7639 41.5046 67.0197 41.6339C67.2754 41.7632 67.4982 41.9511 67.6704 42.1826C67.879 42.5212 67.9896 42.9126 67.9896 43.312C67.9896 43.7114 67.879 44.1028 67.6704 44.4413C67.4978 44.6724 67.2749 44.8596 67.0192 44.9886C66.7635 45.1175 66.4819 45.1846 66.1965 45.1846C65.911 45.1846 65.6295 45.1175 65.3738 44.9886C65.1181 44.8596 64.8952 44.6724 64.7225 44.4413ZM65.3321 44.109C65.4306 44.2482 65.5603 44.3617 65.7105 44.4399C65.8606 44.5181 66.0269 44.5589 66.1957 44.5589C66.3644 44.5589 66.5307 44.5181 66.6809 44.4399C66.8311 44.3617 66.9608 44.2482 67.0593 44.109C67.2026 43.8687 67.2784 43.593 67.2784 43.312C67.2784 43.031 67.2026 42.7553 67.0593 42.515C66.9608 42.3758 66.8311 42.2623 66.6809 42.1841C66.5307 42.1059 66.3644 42.065 66.1957 42.065C66.0269 42.065 65.8606 42.1059 65.7105 42.1841C65.5603 42.2623 65.4306 42.3758 65.3321 42.515C65.1898 42.7557 65.1146 43.0312 65.1146 43.312C65.1146 43.5928 65.1898 43.8683 65.3321 44.109Z" fill="white"/>
<path d="M68.861 41.5405H69.5499L69.3721 42.5005H69.4801C69.6912 41.7987 70.0912 41.4373 70.6643 41.4373C71.4914 41.4373 71.9343 41.9536 71.9343 42.928V45.0819H71.2437V43.0022C71.2437 42.3972 70.9818 42.0875 70.4818 42.0875C69.915 42.0875 69.5594 42.5295 69.5594 43.2378V45.0819H68.8705L68.861 41.5405Z" fill="white"/>
<path d="M73.0424 44.522C72.8192 44.1687 72.7084 43.7541 72.7249 43.3346C72.7177 42.8984 72.8424 42.4704 73.082 42.1084C73.2304 41.8942 73.4287 41.7208 73.6592 41.6036C73.8897 41.4865 74.1452 41.4293 74.4028 41.4373C75.4267 41.4373 76.0141 42.0939 76.0141 43.212V43.5072H73.4408C73.4547 43.7434 73.5273 43.9721 73.6519 44.1719C73.7439 44.3011 73.8669 44.4042 74.0092 44.4714C74.1514 44.5386 74.3083 44.5677 74.4647 44.5559C74.8791 44.5559 75.1902 44.3639 75.314 44.009H76.0046C75.8807 44.6882 75.2569 45.1819 74.479 45.1819C73.7964 45.1899 73.3408 44.9496 73.0424 44.522ZM75.2648 42.9361C75.2426 42.3601 74.9299 42.0504 74.3933 42.0504C74.2451 42.0503 74.0991 42.0865 73.9676 42.1559C73.8361 42.2252 73.7229 42.3257 73.6377 42.4489C73.5463 42.5964 73.4848 42.7609 73.4567 42.9329L75.2648 42.9361Z" fill="white"/>
<path d="M77.5508 43.3039L76.3301 41.5405H77.173L77.9493 42.7296L77.9636 42.9877H78.0731L78.0874 42.7296L78.8637 41.5405H79.7066L78.4874 43.3039L79.7066 45.0786H78.8637L78.0874 43.9138L78.0731 43.6621H77.9636L77.9493 43.9138L77.173 45.0786H76.3301L77.5508 43.3039Z" fill="white"/>
<path d="M80.4114 44.8834C80.2389 44.6867 80.143 44.4329 80.1416 44.1694C80.1401 43.906 80.2332 43.651 80.4034 43.4524C80.6146 43.2378 80.94 43.12 81.3686 43.0974L82.3497 43.0394V42.7586C82.3497 42.3375 82.0957 42.0649 81.5559 42.0649C80.786 42.0649 80.7797 42.6618 80.7797 42.736V42.7699H80.0685V42.7328C80.0685 42.6441 80.0685 41.4341 81.5639 41.4341C82.5433 41.4341 83.037 41.9294 83.037 42.7554V45.0786H82.3259L82.4846 44.1203H82.3894C82.2147 44.8366 81.829 45.1819 81.1829 45.1819C81.0412 45.1869 80.9 45.1631 80.7675 45.1118C80.635 45.0606 80.5139 44.9829 80.4114 44.8834ZM81.1368 40.0724C81.5353 40.0724 81.6956 40.3531 82.0893 40.3531C82.1291 40.358 82.1695 40.3546 82.2079 40.3429C82.2463 40.3312 82.2819 40.3115 82.3125 40.2851C82.3431 40.2588 82.3679 40.2262 82.3855 40.1896C82.4031 40.153 82.4131 40.1131 82.4147 40.0724H82.9085C82.9085 40.6919 82.4592 40.8791 82.0893 40.8791C81.6893 40.8791 81.5289 40.5983 81.1368 40.5983C81.0569 40.5916 80.9776 40.6174 80.9163 40.67C80.855 40.7227 80.8167 40.7978 80.8098 40.8791H80.3161C80.3161 40.2644 80.767 40.0724 81.1368 40.0724ZM80.9606 44.4478C81.013 44.4948 81.0742 44.5308 81.1404 44.5535C81.2066 44.5762 81.2767 44.5852 81.3464 44.5801C81.6053 44.5747 81.8525 44.4699 82.0384 44.2867C82.2242 44.1035 82.3349 43.8555 82.3481 43.5927L81.4686 43.6799C81.2859 43.6814 81.1093 43.7469 80.9686 43.8654C80.9294 43.9045 80.8988 43.9516 80.8788 44.0036C80.8589 44.0556 80.8499 44.1113 80.8527 44.1671C80.8505 44.2189 80.8589 44.2707 80.8775 44.319C80.8961 44.3674 80.9244 44.4112 80.9606 44.4478Z" fill="white"/>
<path d="M84.1562 44.4413C83.9477 44.1028 83.837 43.7114 83.837 43.312C83.837 42.9126 83.9477 42.5212 84.1562 42.1826C84.3285 41.9511 84.5513 41.7632 84.807 41.6339C85.0628 41.5046 85.3445 41.4373 85.6302 41.4373C85.9159 41.4373 86.1976 41.5046 86.4534 41.6339C86.7091 41.7632 86.9319 41.9511 87.1042 42.1826C87.3127 42.5212 87.4234 42.9126 87.4234 43.312C87.4234 43.7114 87.3127 44.1028 87.1042 44.4413C86.9315 44.6724 86.7086 44.8596 86.4529 44.9886C86.1972 45.1175 85.9156 45.1846 85.6302 45.1846C85.3447 45.1846 85.0632 45.1175 84.8075 44.9886C84.5518 44.8596 84.3289 44.6724 84.1562 44.4413ZM84.7706 44.109C84.8693 44.2482 84.9991 44.3617 85.1494 44.4399C85.2997 44.5181 85.4661 44.5589 85.635 44.5589C85.8038 44.5589 85.9702 44.5181 86.1205 44.4399C86.2708 44.3617 86.4007 44.2482 86.4993 44.109C86.6417 43.8683 86.7169 43.5928 86.7169 43.312C86.7169 43.0312 86.6417 42.7557 86.4993 42.515C86.4007 42.3757 86.2708 42.2623 86.1205 42.1841C85.9702 42.1059 85.8038 42.0651 85.635 42.0651C85.4661 42.0651 85.2997 42.1059 85.1494 42.1841C84.9991 42.2623 84.8693 42.3757 84.7706 42.515C84.6283 42.7557 84.5531 43.0312 84.5531 43.312C84.5531 43.5928 84.6283 43.8683 84.7706 44.109Z" fill="white"/>
<path d="M90.1093 41.5405H90.803L90.5998 42.5586H90.7157C90.8538 41.8067 91.2459 41.4373 91.7602 41.4373C92.4222 41.4373 92.7333 41.8729 92.7333 42.5957V43.3265H92.0142V42.8425C92.0142 42.3262 91.8412 42.1052 91.4776 42.1052C91.0347 42.1052 90.803 42.4892 90.803 43.2039V45.0851H90.1124L90.1093 41.5405Z" fill="white"/>
<path d="M93.6017 44.8834C93.4313 44.6853 93.3374 44.431 93.3374 44.1679C93.3374 43.9047 93.4313 43.6505 93.6017 43.4524C93.8128 43.2378 94.1398 43.12 94.5684 43.0974L95.5479 43.0393V42.7586C95.5479 42.3375 95.2939 42.0649 94.7542 42.0649C93.9843 42.0649 93.9763 42.6618 93.9763 42.736V42.7699H93.2651V42.7328C93.2651 42.6441 93.2651 41.4341 94.7605 41.4341C95.7416 41.4341 96.2353 41.9294 96.2353 42.7554V45.0786H95.5177L95.686 44.1203H95.5765C95.4019 44.8366 95.0177 45.1819 94.3716 45.1819C94.2302 45.1865 94.0893 45.1625 93.9571 45.1113C93.825 45.06 93.7041 44.9826 93.6017 44.8834ZM94.1541 44.4478C94.2062 44.4949 94.267 44.5308 94.333 44.5535C94.399 44.5763 94.4688 44.5853 94.5383 44.5801C94.7971 44.5747 95.0444 44.4699 95.2303 44.2867C95.4161 44.1035 95.5268 43.8555 95.54 43.5927L94.6621 43.6799C94.479 43.6818 94.302 43.7472 94.1605 43.8654C94.1216 43.9047 94.0912 43.9519 94.0713 44.0038C94.0513 44.0558 94.0422 44.1114 94.0446 44.1671C94.0426 44.2191 94.0513 44.2709 94.0701 44.3192C94.089 44.3676 94.1176 44.4114 94.1541 44.4478ZM95.032 39.9627H95.8384L95.1256 41.0678H94.5161L95.032 39.9627Z" fill="white"/>
<path d="M97.3115 41.5405H98.0021L97.8211 42.5005H97.929C98.1259 41.7987 98.564 41.4373 99.207 41.4373C99.4559 41.4292 99.7028 41.4852 99.9248 41.6C100.147 41.7148 100.337 41.8847 100.477 42.0939C100.686 42.4644 100.796 42.8841 100.796 43.3112C100.796 43.7383 100.686 44.1579 100.477 44.5285C100.337 44.7379 100.147 44.908 99.925 45.0228C99.703 45.1376 99.456 45.1935 99.207 45.1851C98.572 45.1851 98.1259 44.8237 97.929 44.1235H97.8211L98.0021 45.0819V46.4113H97.3115V41.5405ZM98.2132 44.1526C98.3104 44.2793 98.4348 44.3818 98.5769 44.4523C98.719 44.5228 98.875 44.5594 99.0331 44.5594C99.1912 44.5594 99.3473 44.5228 99.4894 44.4523C99.6314 44.3818 99.7558 44.2793 99.8531 44.1526C100.001 43.8975 100.078 43.607 100.078 43.3112C100.078 43.0153 100.001 42.7249 99.8531 42.4698C99.7555 42.3437 99.631 42.2417 99.4889 42.1715C99.3469 42.1014 99.191 42.065 99.0331 42.065C98.8752 42.065 98.7194 42.1014 98.5773 42.1715C98.4353 42.2417 98.3108 42.3437 98.2132 42.4698C98.0657 42.7249 97.9879 43.0153 97.9879 43.3112C97.9879 43.607 98.0657 43.8975 98.2132 44.1526Z" fill="white"/>
<path d="M101.66 40.124H102.444V40.9952H101.66V40.124ZM101.704 41.5405H102.391V45.0819H101.703L101.704 41.5405Z" fill="white"/>
<path d="M103.62 44.5285C103.411 44.158 103.301 43.7383 103.301 43.3112C103.301 42.8841 103.411 42.4644 103.62 42.0939C103.76 41.8846 103.95 41.7146 104.172 41.5998C104.394 41.485 104.641 41.4291 104.89 41.4373C105.525 41.4373 105.971 41.7987 106.16 42.5005H106.268L106.087 41.5405V39.9175H106.776V45.0803H106.087L106.268 44.1219H106.16C105.963 44.8221 105.525 45.1835 104.89 45.1835C104.641 45.1922 104.394 45.1367 104.172 45.0221C103.95 44.9076 103.76 44.7378 103.62 44.5285ZM104.238 44.1526C104.335 44.2793 104.459 44.3818 104.601 44.4523C104.743 44.5228 104.899 44.5595 105.058 44.5595C105.216 44.5595 105.372 44.5228 105.514 44.4523C105.656 44.3818 105.78 44.2793 105.878 44.1526C106.025 43.8975 106.103 43.6071 106.103 43.3112C106.103 43.0154 106.025 42.7249 105.878 42.4698C105.78 42.3437 105.655 42.2417 105.513 42.1715C105.371 42.1014 105.215 42.065 105.058 42.065C104.9 42.065 104.744 42.1014 104.602 42.1715C104.46 42.2417 104.335 42.3437 104.238 42.4698C104.09 42.7249 104.012 43.0154 104.012 43.3112C104.012 43.6071 104.09 43.8975 104.238 44.1526Z" fill="white"/>
<path d="M108.027 44.8834C107.857 44.6853 107.763 44.431 107.763 44.1679C107.763 43.9047 107.857 43.6505 108.027 43.4524C108.238 43.2378 108.565 43.12 108.992 43.0974L109.973 43.0393V42.7586C109.973 42.3375 109.719 42.0649 109.179 42.0649C108.411 42.0649 108.403 42.6618 108.403 42.736V42.7699H107.692V42.7328C107.692 42.6441 107.692 41.4341 109.187 41.4341C110.167 41.4341 110.661 41.9294 110.661 42.7554V45.0786H109.949L110.108 44.1203H110C109.826 44.8366 109.441 45.1819 108.795 45.1819C108.654 45.1863 108.514 45.1622 108.382 45.1109C108.25 45.0597 108.129 44.9824 108.027 44.8834ZM108.578 44.4478C108.63 44.4947 108.691 44.5306 108.758 44.5533C108.824 44.576 108.894 44.5851 108.964 44.5801C109.222 44.5747 109.47 44.4699 109.656 44.2867C109.841 44.1035 109.952 43.8555 109.965 43.5927L109.086 43.6798C108.903 43.6813 108.726 43.7469 108.586 43.8654C108.547 43.9047 108.517 43.9519 108.497 44.0038C108.477 44.0558 108.468 44.1114 108.47 44.1671C108.469 44.2192 108.478 44.2711 108.497 44.3194C108.517 44.3678 108.546 44.4115 108.583 44.4478H108.578Z" fill="white"/>
<path d="M113.159 43.8654V43.8573C113.159 43.3185 113.435 42.899 114.147 42.515V42.4118C113.661 41.7777 113.464 41.4147 113.464 41.0017C113.464 40.3563 113.994 39.8207 114.785 39.8207C115.575 39.8207 116.085 40.3144 116.085 40.9275V40.9355C116.085 41.518 115.823 41.9229 115.105 42.4247V42.5279L115.983 43.6573C116.085 43.3453 116.134 43.0179 116.128 42.6893V42.3569H116.818V42.6893C116.835 43.2326 116.707 43.7704 116.448 44.2461L117.101 45.0867H116.252L116.006 44.7769C115.663 45.0523 115.237 45.1983 114.801 45.19C113.797 45.19 113.159 44.6253 113.159 43.8654ZM114.858 44.5591C115.134 44.5651 115.403 44.4615 115.605 44.2703L114.494 42.8619C114.043 43.1345 113.877 43.4298 113.877 43.7847C113.885 44.2413 114.248 44.5591 114.858 44.5591ZM114.699 42.0052C115.207 41.6438 115.39 41.3711 115.39 41.0243C115.378 40.8685 115.31 40.7228 115.197 40.6165C115.085 40.5101 114.937 40.451 114.783 40.451C114.63 40.451 114.482 40.5101 114.369 40.6165C114.257 40.7228 114.188 40.8685 114.177 41.0243C114.183 41.2598 114.297 41.4599 114.705 42.0052H114.699Z" fill="white"/>
<path d="M119.526 40.124H120.311V40.9952H119.526V40.124ZM119.569 41.5405H120.26V45.0819H119.569V41.5405Z" fill="white"/>
<path d="M121.42 41.5405H122.111L121.928 42.5005H122.038C122.249 41.7987 122.648 41.4373 123.221 41.4373C124.049 41.4373 124.491 41.9536 124.491 42.928V45.0819H123.802V43.0022C123.802 42.3972 123.54 42.0875 123.038 42.0875C122.473 42.0875 122.117 42.5295 122.117 43.2378V45.0819H121.427L121.42 41.5405Z" fill="white"/>
<path d="M125.784 43.9461V42.1714H125.057V41.5438H125.784V40.8726L126.473 40.5257V41.5438H128.034V42.1714H126.473V43.9461C126.473 44.3591 126.632 44.5591 126.902 44.5591C127.229 44.5591 127.345 44.3526 127.345 43.8428V43.3411H128.034V43.8509C128.034 44.6914 127.635 45.1851 126.923 45.1851C126.14 45.19 125.784 44.7721 125.784 43.9461Z" fill="white"/>
<path d="M128.95 44.522C128.727 44.1687 128.616 43.7541 128.632 43.3346C128.625 42.8986 128.749 42.4709 128.988 42.1084C129.137 41.8943 129.335 41.721 129.566 41.6038C129.797 41.4867 130.052 41.4295 130.31 41.4373C131.334 41.4373 131.921 42.0939 131.921 43.212V43.5072H129.348C129.362 43.7434 129.435 43.9721 129.559 44.1719C129.651 44.3011 129.774 44.4042 129.917 44.4714C130.059 44.5386 130.216 44.5677 130.372 44.5559C130.786 44.5559 131.098 44.3639 131.221 44.009H131.918C131.794 44.6882 131.169 45.1819 130.393 45.1819C129.704 45.1899 129.24 44.9496 128.95 44.522ZM131.172 42.9361C131.15 42.3601 130.837 42.0504 130.301 42.0504C130.152 42.0503 130.006 42.0865 129.875 42.1559C129.743 42.2252 129.63 42.3257 129.545 42.4489C129.454 42.5964 129.392 42.7609 129.364 42.9329L131.172 42.9361Z" fill="white"/>
<path d="M132.79 39.9175H133.479V45.0802H132.79V39.9175Z" fill="white"/>
<path d="M134.596 40.124H135.381V40.9952H134.596V40.124ZM134.641 41.5405H135.33V45.0819H134.641V41.5405Z" fill="white"/>
<path d="M136.238 45.0819H136.927C136.971 45.5836 137.276 45.8724 137.879 45.8724C138.503 45.8724 138.859 45.4965 138.859 44.8398V44.7576L139.098 43.7896H138.99C138.779 44.564 138.328 44.8592 137.784 44.8592C137.544 44.8682 137.305 44.8162 137.09 44.7081C136.875 44.5999 136.689 44.4389 136.551 44.2397C136.351 43.9113 136.246 43.5332 136.246 43.1474C136.246 42.7617 136.351 42.3836 136.551 42.0552C136.689 41.8559 136.875 41.695 137.09 41.5868C137.305 41.4786 137.544 41.4267 137.784 41.4357C138.328 41.4357 138.779 41.7309 138.99 42.5053H139.098L138.859 41.5373H139.538V44.6027C139.538 45.8643 138.979 46.5 137.868 46.5C136.839 46.5 136.289 45.9966 136.238 45.0819ZM137.152 43.8799C137.241 43.9974 137.355 44.0925 137.486 44.158C137.617 44.2235 137.761 44.2576 137.907 44.2576C138.053 44.2576 138.197 44.2235 138.328 44.158C138.459 44.0925 138.573 43.9974 138.662 43.8799C138.795 43.66 138.865 43.4071 138.865 43.1491C138.865 42.8911 138.795 42.6381 138.662 42.4182C138.573 42.3007 138.459 42.2056 138.328 42.1401C138.197 42.0746 138.053 42.0406 137.907 42.0406C137.761 42.0406 137.617 42.0746 137.486 42.1401C137.355 42.2056 137.241 42.3007 137.152 42.4182C137.019 42.6381 136.949 42.8911 136.949 43.1491C136.949 43.4071 137.019 43.66 137.152 43.8799Z" fill="white"/>
<path d="M140.695 44.522C140.472 44.1687 140.361 43.7541 140.378 43.3346C140.37 42.8985 140.494 42.4706 140.733 42.1084C140.882 41.8943 141.08 41.721 141.311 41.6038C141.541 41.4867 141.797 41.4295 142.054 41.4373C143.078 41.4373 143.665 42.0939 143.665 43.212V43.5072H141.094C141.108 43.7434 141.18 43.9721 141.305 44.1719C141.397 44.3011 141.52 44.4042 141.662 44.4714C141.804 44.5386 141.961 44.5677 142.118 44.5559C142.532 44.5559 142.845 44.3639 142.967 44.009H143.665C143.542 44.6882 142.918 45.1819 142.14 45.1819C141.451 45.19 140.986 44.9496 140.695 44.522ZM142.918 42.9361C142.896 42.3601 142.584 42.0504 142.046 42.0504C141.898 42.0506 141.752 42.0869 141.621 42.1562C141.489 42.2256 141.376 42.3259 141.291 42.4489C141.2 42.5967 141.138 42.7611 141.11 42.9329L142.918 42.9361Z" fill="white"/>
<path d="M144.535 41.5405H145.226L145.043 42.5005H145.153C145.362 41.7987 145.763 41.4373 146.336 41.4373C147.164 41.4373 147.606 41.9536 147.606 42.928V45.0819H146.917V43.0022C146.917 42.3972 146.655 42.0875 146.153 42.0875C145.588 42.0875 145.232 42.5295 145.232 43.2378V45.0819H144.542L144.535 41.5405Z" fill="white"/>
<path d="M148.904 43.9461V42.1714H148.177V41.5438H148.904V40.8726L149.593 40.5257V41.5438H151.153V42.1714H149.593V43.9461C149.593 44.3591 149.76 44.5591 150.022 44.5591C150.349 44.5591 150.465 44.3526 150.465 43.8428V43.3411H151.153V43.8509C151.153 44.6914 150.755 45.1851 150.042 45.1851C149.255 45.19 148.904 44.7721 148.904 43.9461Z" fill="white"/>
<path d="M152.063 44.522C151.841 44.1684 151.73 43.754 151.746 43.3346C151.739 42.8986 151.863 42.4709 152.101 42.1084C152.25 41.8943 152.449 41.721 152.679 41.6038C152.91 41.4867 153.166 41.4295 153.424 41.4373C154.447 41.4373 155.035 42.0939 155.035 43.212V43.5072H152.463C152.476 43.7435 152.549 43.9724 152.674 44.1719C152.766 44.3012 152.889 44.4044 153.031 44.4716C153.174 44.5389 153.331 44.5679 153.487 44.5559C153.901 44.5559 154.213 44.3639 154.336 44.009H155.025C154.903 44.6882 154.278 45.1819 153.501 45.1819C152.819 45.1899 152.354 44.9496 152.063 44.522ZM154.286 42.9361C154.265 42.3601 153.952 42.0504 153.416 42.0504C153.269 42.0512 153.124 42.0876 152.994 42.1566C152.863 42.2257 152.751 42.3253 152.666 42.4472C152.575 42.5948 152.513 42.7593 152.485 42.9312L154.286 42.9361Z" fill="white"/>
<path d="M45.2571 23.087C45.4841 36.0438 35.0052 46.7097 22.2563 46.5C17.2376 46.4229 12.3878 44.6458 8.47553 41.4502C8.42698 41.4107 8.38803 41.3603 8.36172 41.3031C8.33542 41.2458 8.32245 41.1831 8.32383 41.1199C8.32521 41.0567 8.34091 40.9947 8.36969 40.9386C8.39848 40.8826 8.43958 40.8341 8.48982 40.7968C11.6203 38.4671 14.6397 35.9938 17.4018 33.2253C21.353 29.2661 24.774 24.6842 26.9377 19.4908C27.3648 18.4663 27.7664 17.3805 28.576 16.6303C29.3856 15.8801 30.7508 15.6058 31.5541 16.3609C32.0668 16.8449 32.224 17.6242 32.1256 18.3292C32.0271 19.0342 31.7096 19.6828 31.3969 20.3201L28.1394 26.959C27.8775 27.4931 27.6108 28.0432 27.5759 28.6369C27.541 29.2306 27.8029 29.8857 28.3379 30.1244C29.0284 30.4326 29.8031 29.9631 30.3682 29.4484C31.5833 28.3395 32.5591 26.9866 33.234 25.4752C33.9088 23.9637 34.2682 22.3266 34.2893 20.6669C34.2988 19.0165 33.9718 17.3821 33.9146 15.7317C33.8575 14.0812 34.1131 12.334 35.1306 11.0449C35.6361 10.421 36.2929 9.94184 37.0361 9.65467C37.7794 9.3675 38.5836 9.28225 39.3692 9.40733C39.916 9.50468 40.4396 9.7067 40.9122 10.0027C40.9585 10.0331 40.9988 10.0719 41.0312 10.1172C43.7066 13.9022 45.181 18.4272 45.2571 23.087Z" fill="#EDC32E"/>
<path d="M36.7831 5.55295C36.8305 5.59226 36.8685 5.64202 36.8942 5.69847C36.9199 5.75492 36.9327 5.81658 36.9314 5.87877C36.9302 5.94096 36.9151 6.00205 36.8872 6.05741C36.8593 6.11277 36.8193 6.16095 36.7704 6.1983C33.6399 8.52476 30.6206 11.0013 27.86 13.7666C23.9088 17.7241 20.4878 22.3077 18.3241 27.4994C17.897 28.5255 17.4938 29.6113 16.6858 30.3631C15.8778 31.115 14.511 31.3876 13.7077 30.631C13.1934 30.1469 13.0362 29.3677 13.1346 28.6627C13.2331 27.9576 13.5506 27.3091 13.8649 26.6718C14.9496 24.4615 16.0355 22.2512 17.1223 20.0409C17.3843 19.5085 17.651 18.9551 17.6859 18.3614C17.7208 17.7677 17.4621 17.1175 16.9223 16.8803C16.2318 16.5738 15.4571 17.0417 14.8935 17.5579C13.6788 18.667 12.7035 20.02 12.0292 21.5314C11.3548 23.0429 10.9961 24.68 10.9757 26.3394C10.9646 27.9899 11.2932 29.6242 11.3487 31.2731C11.4043 32.9219 11.1503 34.6724 10.1327 35.9518C9.62628 36.5769 8.9678 37.0566 8.22264 37.3433C7.47748 37.63 6.67151 37.7137 5.88469 37.5861C5.3109 37.4814 4.76324 37.2621 4.27342 36.9408C1.47583 33.011 -0.0206645 28.2794 -3.36593e-05 23.4289C0.036478 10.8399 10.1486 0.551551 22.5419 0.499924C27.7192 0.471445 32.7482 2.25583 36.7831 5.55295Z" fill="#4E7C3C"/>
<path d="M41.0232 10.0979C40.9942 10.06 40.9587 10.0278 40.9184 10.0027C40.4471 9.70536 39.9237 9.50322 39.377 9.40734C38.5905 9.27925 37.7846 9.36238 37.0395 9.6485C36.2943 9.93462 35.6357 10.4138 35.129 11.0384C34.1114 12.3291 33.859 14.0748 33.9114 15.7252C33.9638 17.3757 34.2971 19.0084 34.2892 20.6669C34.2692 22.3265 33.9106 23.9637 33.2363 25.4752C32.5619 26.9867 31.5864 28.3396 30.3713 29.4484C29.8078 29.955 29.0331 30.4326 28.3426 30.1244C27.8076 29.8857 27.5488 29.2323 27.5806 28.6369C27.6123 28.0416 27.8822 27.4914 28.1425 26.959C29.2305 24.7487 30.3168 22.5384 31.4016 20.3281C31.7191 19.6909 32.0366 19.0375 32.1302 18.3373C32.2239 17.6371 32.0715 16.8514 31.5572 16.369C30.7539 15.6123 29.3887 15.885 28.5807 16.6368C27.7727 17.3886 27.3694 18.4744 26.9408 19.4989C24.7771 24.6907 21.3561 29.2742 17.4049 33.2334C14.6412 35.9938 11.6202 38.4671 8.48974 40.7936C8.44187 40.8294 8.40242 40.8756 8.37426 40.9288C8.34609 40.9821 8.3299 41.041 8.32686 41.1013C8.32383 41.1617 8.33401 41.222 8.35669 41.2778C8.37937 41.3337 8.41397 41.3838 8.45799 41.4244C6.87249 40.1301 5.46508 38.6254 4.27344 36.9505C4.76378 37.2719 5.31198 37.4913 5.8863 37.5959C6.67299 37.724 7.47896 37.6406 8.22418 37.3542C8.96939 37.0678 9.62791 36.5883 10.1344 35.9632C11.1519 34.6725 11.4043 32.9268 11.3504 31.2844C11.2964 29.642 10.9662 27.9997 10.9773 26.3492C10.9974 24.6899 11.3559 23.0529 12.0303 21.5417C12.7046 20.0304 13.6802 18.6778 14.8952 17.5693C15.4571 17.0595 16.2334 16.5835 16.9223 16.8917C17.4589 17.1305 17.7161 17.7855 17.6859 18.3792C17.6558 18.9729 17.3843 19.5247 17.124 20.0587C16.0371 22.2604 14.9507 24.4669 13.8649 26.6783C13.5474 27.314 13.2299 27.969 13.1362 28.6692C13.0426 29.3694 13.195 30.1535 13.7093 30.6375C14.5126 31.3925 15.8778 31.1215 16.6858 30.3681C17.4938 29.6146 17.8971 28.5321 18.3257 27.506C20.4894 22.3126 23.9104 17.7306 27.8616 13.7715C30.6206 11.0062 33.6415 8.53129 36.772 6.20483C36.8205 6.16862 36.8605 6.12184 36.8889 6.0679C36.9173 6.01397 36.9335 5.95425 36.9362 5.89313C36.9389 5.83201 36.9282 5.77105 36.9047 5.71471C36.8812 5.65837 36.8457 5.60809 36.8006 5.56755C38.4026 6.87731 39.823 8.40122 41.0232 10.0979Z" fill="white"/>
</g>
<defs>
<clipPath id="clip0_3559_1154">
<rect width="190.345" height="46" fill="white" transform="translate(0 0.5)"/>
</clipPath>
</defs>
</svg>
